<svg xmlns="http://www.w3.org/2000/svg" viewBox="0 0 24 24" id="food"><path fill="#303c42" d="M7.5 6a.5.5 0 0 0 .5-.5 3.38 3.38 0 0 1 .45-1.78A4.37 4.37 0 0 0 9 1.5a.5.5 0 1 0-1 0 3.38 3.38 0 0 1-.45 1.78A4.37 4.37 0 0 0 7 5.5a.5.5 0 0 0 .5.5zm4 0a.5.5 0 0 0 .5-.5 3.38 3.38 0 0 1 .45-1.78A4.37 4.37 0 0 0 13 1.5a.5.5 0 1 0-1 0 3.38 3.38 0 0 1-.45 1.78A4.37 4.37 0 0 0 11 5.5a.5.5 0 0 0 .5.5zm4 0a.5.5 0 0 0 .5-.5 3.38 3.38 0 0 1 .45-1.78A4.37 4.37 0 0 0 17 1.5a.5.5 0 1 0-1 0 3.38 3.38 0 0 1-.45 1.78A4.37 4.37 0 0 0 15 5.5a.5.5 0 0 0 .5.5z"></path><path fill="#303c42" d="M24 9.5c0-.54-.44-1-1.42-1.32l.66-.38a1.5 1.5 0 1 0-1.49-2.6l-3.68 2.1A58.14 58.14 0 0 0 12 7C10.77 7 0 7.07 0 9.5c0 6.62 2.89 9.77 6 11.25C6 22.3 9.11 23 12 23s6-.7 6-2.25c3.11-1.48 6-4.63 6-11.25Zm-1 0c-.23.35-1.89.87-4.78 1.21l3.17-1.81a5.79 5.79 0 0 1 1.61.57ZM12 8c1.59 0 3.14.06 4.56.17l-5 2.83C5.15 11 1.38 10 1 9.52 1.43 9 5.33 8 12 8Z"></path></svg>