<svg xmlns="http://www.w3.org/2000/svg" viewBox="0 0 24 24" id="food"><path fill="none" stroke="#303c42" stroke-linecap="round" stroke-linejoin="round" d="M21.32 8.33c1.37.33 2.18.73 2.18 1.17 0 1.1-5.15 2-11.5 2S.5 10.61.5 9.5s5.15-2 11.5-2a57.14 57.14 0 0 1 6.19.31"></path><path fill="none" stroke="#303c42" stroke-linecap="round" stroke-linejoin="round" d="M23.5 9.5c0 9.5-6.09 12-11.5 12S.5 19 .5 9.5"></path><path fill="none" stroke="#303c42" stroke-linecap="round" stroke-linejoin="round" d="M6.58 20.47a.62.62 0 0 0-.08.28c0 1 2.46 1.75 5.5 1.75s5.5-.78 5.5-1.75a.62.62 0 0 0-.08-.28M16 11.37l7-4a1 1 0 0 0-1-1.74L11.74 11.5H12m-3.5-10c0 2-1 2-1 4m5-4c0 2-1 2-1 4m5-4c0 2-1 2-1 4"></path></svg>